<?xml version="1.0" encoding="utf-8"?>
<svg xmlns="http://www.w3.org/2000/svg" width="200px" height="200px" viewBox="0 0 200 200">
<polygon fill="#ACBD81" points="108.5,40 89.7,8.6 90.4,8.5 100,8 109.6,8.5 119.1,10 128.4,12.5 137.4,16 146,20.3 153.5,25.2 137.2,48.4 125,65.8 124,66 "/>
<polygon fill="#E15C64" points="66,113 70.2,112.8 86.9,112.1 112.7,73.8 75.4,11.5 71.6,12.5 62.6,16 54,20.3 45.9,25.6 38.4,31.6 31.6,38.4 25.6,45.9 20.3,54 16,62.6 12.5,71.6 10.9,77.4 40.8,96.7 "/>
<polygon fill="#F7B26A" points="8.4,92.1 8,100 8.5,109.6 10,119.1 12.5,128.4 16,137.4 20.3,146 25.6,154.1 26.4,155.1 53.9,121.5 "/>
<polygon fill="#F7B26A" points="190.7,85.5 190,80.9 187.5,71.6 184.1,62.6 179.7,54 174.4,45.9 168.4,38.4 164.1,34.1 158.2,42.4 140.1,68.2 "/>
<polygon fill="#E15C64" points="104.1,152.5 87.5,191 90.4,191.5 100,192 109.6,191.5 119.1,190 128.4,187.5 137.4,184 146,179.7 147.7,178.6 129.9,168 "/>
<polygon fill="#ACBD81" points="86.2,125.8 67.5,126.6 35.6,165.5 38.4,168.4 45.9,174.4 54,179.7 62.6,184 71.6,187.5 73.8,188.1 93.4,142.6 "/>
<polygon fill="#77A4BD" points="129,78.9 125.1,80 98.5,119.5 101.7,127.1 106.3,137.9 159.8,169.8 161.6,168.4 168.4,161.6 174.4,154.1 179.7,146 184.1,137.4 187.5,128.4 190,119.1 191.5,109.6 192,100.4 "/>
</svg>
